<svg width="201" height="175" viewBox="0 0 201 175" fill="none" xmlns="http://www.w3.org/2000/svg">
<g clip-path="url(#clip0_2017_505)">
<path d="M165.198 51.6099C161.618 56.9699 94.8281 173.48 94.8281 173.48L137.278 174.31C146.618 174.31 153.138 170.29 156.908 163.76L200.998 87.3999C200.998 87.3999 184.068 57.3799 180.338 51.6099C176.608 45.8399 168.968 45.9699 165.198 51.6099Z" fill="url(#paint0_linear_2017_505)"/>
<path d="M137.282 174.31C146.622 174.31 153.142 170.29 156.912 163.76L158.082 161.73C155.172 166.58 150.412 172.21 143.882 162.31C139.122 155.08 100.492 87.1602 100.492 87.1602L50.1719 174.32H137.272L137.282 174.31Z" fill="url(#paint1_linear_2017_505)"/>
<path d="M35.8 122.7C39.39 117.32 106.22 0.74 106.22 0.74L63.72 0C54.38 0 47.86 4.02 44.09 10.55L0 86.92C0 86.92 16.93 116.94 20.66 122.71C24.39 128.48 32.03 128.35 35.8 122.71V122.7Z" fill="url(#paint2_linear_2017_505)"/>
<path d="M63.7219 0C54.3819 0 47.8619 4.02 44.0919 10.55L42.9219 12.58C45.8319 7.73 50.5919 2.1 57.1219 12C61.8819 19.23 100.512 87.15 100.512 87.15L150.822 0H63.7219Z" fill="url(#paint3_linear_2017_505)"/>
</g>
<defs>
<linearGradient id="paint0_linear_2017_505" x1="52.4081" y1="171.44" x2="282.308" y2="38.7099" gradientUnits="userSpaceOnUse">
<stop stop-color="#FA0A64"/>
<stop offset="0.11" stop-color="#FA125F"/>
<stop offset="0.28" stop-color="#FA2B52"/>
<stop offset="0.49" stop-color="#FB533D"/>
<stop offset="0.75" stop-color="#FD8920"/>
<stop offset="1" stop-color="#FFC800"/>
</linearGradient>
<linearGradient id="paint1_linear_2017_505" x1="104.132" y1="173.69" x2="104.132" y2="0.110153" gradientUnits="userSpaceOnUse">
<stop stop-color="#FFC800"/>
<stop offset="0.11" stop-color="#FEBF04"/>
<stop offset="0.28" stop-color="#FEA611"/>
<stop offset="0.49" stop-color="#FD7E26"/>
<stop offset="0.75" stop-color="#FB4843"/>
<stop offset="1" stop-color="#FA0A64"/>
</linearGradient>
<linearGradient id="paint2_linear_2017_505" x1="148.69" y1="2.82" x2="-81.37" y2="135.64" gradientUnits="userSpaceOnUse">
<stop stop-color="#FA0A64"/>
<stop offset="0.11" stop-color="#FA125F"/>
<stop offset="0.28" stop-color="#FA2B52"/>
<stop offset="0.49" stop-color="#FB533D"/>
<stop offset="0.75" stop-color="#FD8920"/>
<stop offset="1" stop-color="#FFC800"/>
</linearGradient>
<linearGradient id="paint3_linear_2017_505" x1="96.8719" y1="0.63" x2="96.8719" y2="174.2" gradientUnits="userSpaceOnUse">
<stop stop-color="#FFC800"/>
<stop offset="0.11" stop-color="#FEBF04"/>
<stop offset="0.28" stop-color="#FEA611"/>
<stop offset="0.49" stop-color="#FD7E26"/>
<stop offset="0.75" stop-color="#FB4843"/>
<stop offset="1" stop-color="#FA0A64"/>
</linearGradient>
<clipPath id="clip0_2017_505">
<rect width="201" height="174.31" fill="white"/>
</clipPath>
</defs>
</svg>
